<svg xmlns="http://www.w3.org/2000/svg" xml:space="preserve" width="1500" height="112" data-id="lg_KmPuMrtkcXq1YzwCfe" data-version="1" viewBox="0 0 1500 112"><g data-padding="20"><g transform="translate(10 1.99)scale(.96448)"><rect width="712.667" height="103.96" x="259.953" y="-52.317" fill="none" rx="0" ry="0" transform="matrix(.79 0 0 .79 280.39 41.24)"/><path fill="#f4e2de" d="M535.846 64.374q-9.39 0-13.19-3.65t-3.8-10.81q0-2.02.29-4.3t.73-4.88q1.37-7.88 3.97-13.12 2.61-5.24 7.45-7.92 4.84-2.67 12.87-2.67 1.59 0 3.76.21 2.17.22 4.23.66 2.06.43 3.14 1.01l-4.05 11.06q-2.02-.51-4.34-.76-2.31-.25-3.75-.25-3.33 0-5.07.65-1.73.65-2.09 2.96l-3.33 18.94q1.45.29 2.79.43 1.33.15 2.56.15 2.75 0 5.6-.47 2.86-.47 5.1-1.27l-1.16 12.15q-2.53 1.01-5.31 1.45-2.78.43-6.4.43m-9.61-43.88-22.12-2.39h25.37q-.87.51-1.66 1.09-.8.57-1.59 1.3m-5.06 7.44-27.04-2.89h28.48q-.36.73-.72 1.41-.36.69-.72 1.48m-1.52 4.05-.87 2.97-28.05-2.97Zm-2.24 9.98-28.41-3.04h28.92l-.22 1.45q-.07.43-.15.83-.07.4-.14.76m-.72 6.94-28.49-3.04h28.7q-.21 1.59-.21 3.04m.57 6.94-28.12-3.04h27.62q.14.8.25 1.56t.25 1.48m3.84 6.65-25.02-2.68h22.85q.94 1.67 2.17 2.68"/><path fill="#f4e2de" d="M584.866 64.374q-4.27 0-8.35-.47-4.09-.47-7.92-1.41l4.05-11.93q2.75.72 5.93 1.19t6 .47q2.31 0 4.05-.1 1.73-.11 3.32-.33l.58-3.61-6-.58q-7.08-.73-9.83-3.22t-2.75-6.83q0-1.95.44-4.34 1.15-6.14 3.36-9.69 2.2-3.54 6.32-5.02t10.92-1.48q3.97 0 7.81.43 3.83.44 7.37 1.38l-3.76 11.56q-2.82-.5-5.35-.79t-5.64-.29q-1.66 0-2.82.07-1.15.07-2.82.29l-.58 3.54 4.85.51q5.2.5 8.17 1.99 2.96 1.48 4.19 3.68 1.23 2.21 1.23 5.1 0 .87-.11 1.77t-.25 1.92q-1.01 5.85-3.26 9.18-2.24 3.32-5.27 4.8-3.04 1.49-6.62 1.85t-7.26.36m-8.32-43.3-27.9-2.97h31.08q-.94.58-1.69 1.34-.76.76-1.49 1.63m-2.24 3.97-1.08 3.18-30-3.18Zm-2.46 10.2-30.65-3.26h31.16q-.07.22-.11.44-.03.21-.03.43-.08.51-.18 1.08-.11.58-.19 1.31m.58 6.94-30.58-3.26h30q.08.94.19 1.7.1.76.39 1.56m9.55 6.94-38.25-3.26h31.16q2.39 2.32 7.09 3.26m-12.44 3.68-1.08 3.18-25.96-3.18Zm-2.31 7.01-1.09 3.19-24.86-3.19Z"/><path fill="#f4e2de" d="M656.226 63.284h-30.58l7.95-45.18h30.22l-3.76 11.57h-14.82l-1.01 6.07h13.73l-1.88 10.48h-13.73l-.94 5.5h16.84Zm-24.87-45.18-.58 3.26-30.58-3.26Zm-1.23 6.94-.5 3.26-30.66-3.26Zm-1.15 6.94-.58 3.26-30.65-3.26Zm-1.23 6.94-.58 3.26-30.65-3.26Zm-1.23 6.94-.58 3.26-30.65-3.26Zm-1.23 6.94-.58 3.26-30.65-3.26Zm-1.23 7.01-.58 3.26-30.65-3.26Zm82.69 3.47h-14.31l10.55-45.18h17.93l1.3 22.99h.51l9.4-22.99h17.92l-5.35 45.18h-14.38l3.03-21.9h-.5l-9.04 21.9h-10.48l-1.52-21.9h-.36Zm-6-45.18-.72 3.26-30.29-3.26Zm-1.59 6.94-.79 3.26-30.29-3.26Zm-1.66 6.94-.72 3.26-30.37-3.26Zm-1.59 6.94-.8 3.26-30.36-3.26Zm-1.66 6.94-.73 3.26-30.43-3.26Zm-1.6 6.94-.79 3.26-30.44-3.26Zm-1.66 7.01-.72 3.26-30.51-3.26Z"/><path fill="#f4e2de" d="M783.736 64.374q-9.4 0-13.19-3.69-3.8-3.68-3.8-10.91 0-2.03.26-4.27.25-2.24.68-4.77 1.38-7.88 4.05-13.12 2.68-5.24 7.52-7.92 4.84-2.67 12.8-2.67 9.39 0 13.19 3.65 3.79 3.65 3.79 10.95 0 2.96-.47 6.8-.47 3.83-1.59 7.8-1.12 3.98-3 7.52t-4.69 6.07q-2.9 2.53-6.73 3.55-3.83 1.01-8.82 1.01m-9.54-43.88-22.12-2.39h25.37q-.86.51-1.66 1.09-.79.57-1.59 1.3m-5.06 7.44-27.04-2.89h28.49q-.37.73-.73 1.41-.36.69-.72 1.48m14.6 5.28-3.32 18.8h5.71q2.38 0 3.94-.58 1.55-.58 2.06-3.25l3.32-18.8h-5.78q-2.39 0-3.9.58-1.52.58-2.03 3.25m-16.12-1.23-.87 2.97-28.05-2.97Zm-2.24 9.98-28.41-3.04h28.92l-.22 1.45q-.07.43-.15.83-.07.4-.14.76m-.72 6.94-28.49-3.04h28.7q-.21 1.59-.21 3.04m.58 6.94-28.13-3.04h27.62q.14.8.25 1.56t.26 1.48m3.83 6.65-25.02-2.68h22.85q.94 1.67 2.17 2.68"/><path fill="#f4e2de" d="M848.086 63.284h-13.73l5.85-33.61h-9.9l2.09-11.57h33.62l-2.1 11.57h-9.97Zm-18-45.18-.58 3.26-30.58-3.26Zm-1.23 6.94-.5 3.26-30.66-3.26Zm8.75 6.94-.58 3.26-30.65-3.26Zm-1.23 6.94-.58 3.26-30.65-3.26Zm-1.23 6.94-.58 3.26-30.65-3.26Zm-1.23 6.94-.58 3.26-30.65-3.26Zm-1.23 7.01-.57 3.26-30.66-3.26Z"/><path fill="#f4e2de" d="M895.216 64.374q-9.4 0-13.2-3.69-3.79-3.68-3.79-10.91 0-2.03.25-4.27t.69-4.77q1.37-7.88 4.05-13.12 2.67-5.24 7.51-7.92 4.85-2.67 12.8-2.67 9.4 0 13.19 3.65 3.8 3.65 3.8 10.95 0 2.96-.47 6.8-.47 3.83-1.59 7.8-1.12 3.98-3 7.52t-4.7 6.07q-2.89 2.53-6.72 3.55-3.84 1.01-8.82 1.01m-9.55-43.88-22.12-2.39h25.38q-.87.51-1.67 1.09-.79.57-1.59 1.3m-5.06 7.44-27.03-2.89h28.48q-.36.73-.72 1.41-.37.69-.73 1.48m14.61 5.28-3.33 18.8h5.71q2.39 0 3.94-.58 1.56-.58 2.06-3.25l3.33-18.8h-5.79q-2.38 0-3.9.58t-2.02 3.25m-16.12-1.23-.87 2.97-28.05-2.97Zm-2.25 9.98-28.41-3.04h28.92l-.22 1.45q-.07.43-.14.83t-.15.76m-.72 6.94-28.48-3.04h28.7q-.22 1.59-.22 3.04m.58 6.94-28.12-3.04h27.61q.15.8.26 1.56t.25 1.48m3.83 6.65-25.01-2.68h22.84q.94 1.67 2.17 2.68"/><path fill="#f4e2de" d="M950.666 63.284h-13.73l7.95-45.18h21.69q4.7 0 7.41 1.45 2.71 1.44 3.83 3.94 1.12 2.49 1.12 5.67 0 1.95-.4 4.63-.39 2.67-1.41 5.46-1.01 2.78-2.85 5.17-1.85 2.38-4.67 3.83l4.78 15.03h-15.11l-3.33-13.44h-2.96Zm-8.02-45.18-.58 3.26-30.58-3.26Zm-1.23 6.94-.58 3.26-30.58-3.26Zm15.11 4.63-1.59 9.04h3.18q2.1 0 3.54-.47 1.45-.47 1.81-2.57.36-1.81.47-2.75t.11-1.01q0-1.59-1.34-1.92-1.34-.32-3.43-.32Zm-16.34 2.31-.58 3.26-30.58-3.26Zm-1.23 6.94-.58 3.26-30.57-3.26Zm-1.15 6.94-.58 3.26-30.65-3.26Zm-1.23 6.94-.58 3.26-30.65-3.26Zm-1.23 7.01-.58 3.26-30.65-3.26Z"/><path fill="#f4e2de" d="M1011.326 64.374q-4.27 0-8.35-.47-4.09-.47-7.92-1.41l4.05-11.93q2.75.72 5.93 1.19t6 .47q2.31 0 4.05-.1 1.73-.11 3.32-.33l.58-3.61-6-.58q-7.08-.73-9.83-3.22t-2.75-6.83q0-1.95.43-4.34 1.16-6.14 3.37-9.69 2.2-3.54 6.32-5.02t10.92-1.48q3.97 0 7.81.43 3.83.44 7.37 1.38l-3.76 11.56q-2.82-.5-5.35-.79t-5.64-.29q-1.66 0-2.82.07-1.15.07-2.82.29l-.58 3.54 4.85.51q5.2.5 8.17 1.99 2.96 1.48 4.19 3.68 1.23 2.21 1.23 5.1 0 .87-.11 1.77t-.25 1.92q-1.01 5.85-3.26 9.18-2.24 3.32-5.27 4.8-3.04 1.49-6.62 1.85t-7.26.36m-8.32-43.3-27.9-2.97h31.08q-.94.58-1.69 1.34-.76.76-1.49 1.63m-2.24 3.97-1.08 3.18-30-3.18Zm-2.46 10.2-30.65-3.26h31.16q-.07.22-.11.44-.03.21-.03.43-.08.51-.18 1.08-.11.58-.19 1.31m.58 6.94-30.58-3.26h30q.08.94.19 1.7.1.76.39 1.56m9.55 6.94-38.25-3.26h31.16q2.39 2.32 7.09 3.26m-12.44 3.68-1.08 3.18-25.96-3.18Zm-2.31 7.01-1.09 3.19-24.86-3.19Z"/><rect width="382.24" height="38.42" x="425.166" y="-19.547" fill="none" rx="0" ry="0" transform="matrix(.79 0 0 .79 393.02 97.18)"/><path fill="#f4e2de" d="m741.996 86.414 4.92 9.55 4.93-9.55h2.87l-6.53 11.9v7.1h-2.55v-7.1l-6.53-11.9Zm13.85 12.1v-.3q0-2.05.78-3.67t2.22-2.56q1.43-.95 3.4-.95 2 0 3.45.95 1.44.94 2.22 2.56t.78 3.67v.3q0 2.03-.78 3.66-.78 1.62-2.22 2.56t-3.42.94-3.43-.94q-1.44-.94-2.22-2.56-.78-1.63-.78-3.66m2.44-.3v.3q0 1.39.44 2.58t1.32 1.9q.89.72 2.23.72 1.33 0 2.21-.72.88-.71 1.32-1.9.45-1.19.45-2.58v-.3q0-1.4-.45-2.59-.44-1.18-1.33-1.91-.88-.72-2.23-.72-1.31 0-2.2.72-.89.73-1.33 1.91-.43 1.19-.43 2.59m21.74 3.94v-10.86h2.44v14.12h-2.32Zm.46-2.98 1.01-.02q0 1.87-.53 3.35-.54 1.47-1.75 2.32t-3.25.85q-2.07 0-3.35-1.23-1.28-1.22-1.28-4.04v-9.11h2.44v9.13q0 1.28.37 1.98t.97.97q.59.26 1.24.26 1.54 0 2.44-.59t1.29-1.61q.4-1.02.4-2.26m7.76-5.66v11.9h-2.44v-14.12h2.37Zm4.4-2.3v2.23q-.32-.06-.58-.08-.27-.02-.61-.02-1.11 0-1.87.46-.77.45-1.18 1.26-.42.8-.53 1.83l-.69.39q0-1.71.46-3.12.46-1.42 1.43-2.27.97-.86 2.5-.86.24 0 .59.06t.48.12m14.68 14.46q-1.8 0-3-.82-1.2-.81-1.86-2.31-.67-1.49-.88-3.54v-1.26q.21-2.08.88-3.58.66-1.5 1.86-2.31 1.19-.82 2.98-.82 1.77 0 3 .9 1.22.9 1.86 2.53.64 1.62.64 3.77v.28q0 2.06-.64 3.68-.64 1.61-1.86 2.55-1.23.93-2.98.93m-4.25-.26h-2.23v-20.04h2.44v17.3Zm3.64-1.78q1.3 0 2.11-.69.8-.7 1.17-1.86t.37-2.57v-.28q0-1.41-.35-2.59t-1.15-1.88q-.81-.71-2.18-.71-.9 0-1.57.32-.67.31-1.14.84t-.76 1.2q-.3.67-.44 1.39v3.17q.21.91.68 1.75t1.27 1.38q.8.53 1.99.53m14.67 2.04q-1.97 0-3.42-.88-1.46-.88-2.26-2.42t-.8-3.52v-.57q0-2.29.88-3.92.88-1.62 2.29-2.47 1.42-.86 3-.86 2.03 0 3.32.91 1.28.9 1.89 2.46t.61 3.53v1.09h-10.54v-1.96h8.1v-.18q-.06-.94-.38-1.84-.33-.89-1.05-1.47-.71-.58-1.95-.58-1.1 0-1.94.62t-1.32 1.8q-.47 1.18-.47 2.87v.57q0 1.34.49 2.44.5 1.1 1.44 1.76t2.24.66q1.28 0 2.17-.52.88-.52 1.55-1.4l1.47 1.15q-.67 1.05-1.95 1.89-1.27.84-3.37.84m13.18 0q-1.86 0-3.15-.67-1.3-.66-1.96-1.71-.67-1.05-.67-2.23h2.44q.07.99.58 1.58.52.58 1.27.82.75.25 1.49.25.99 0 1.67-.27.67-.26 1.01-.73.35-.46.35-1.05 0-.52-.23-.97t-.92-.82-2.09-.66q-1.56-.33-2.7-.83t-1.76-1.28q-.62-.79-.62-1.95 0-1.12.64-2.05.65-.93 1.83-1.5t2.76-.57q1.69 0 2.9.6 1.21.59 1.85 1.59.63.99.63 2.21h-2.43q0-.88-.77-1.66-.76-.78-2.18-.78-.99 0-1.61.3-.62.31-.9.79-.28.47-.28 1 0 .52.26.9.26.39.96.69.69.3 2.02.6 1.74.39 2.86.94 1.12.54 1.67 1.34t.55 1.94q0 1.23-.68 2.18-.68.94-1.9 1.47-1.23.53-2.89.53m14.22-14.37v1.84h-7.64v-1.84Zm-5.07-3.43h2.44v14.05q0 .73.22 1.1.22.36.57.48.36.12.76.12.3 0 .63-.05.34-.06.49-.1v1.95q-.28.09-.74.17-.46.09-1.11.09-.89 0-1.63-.35-.74-.36-1.19-1.18-.44-.83-.44-2.24Zm19.53 17.8q-2.13 0-3.53-.97-1.39-.98-2.08-2.58-.68-1.6-.68-3.5v-.54q0-1.91.69-3.51.69-1.59 2.09-2.57 1.39-.97 3.51-.97 1.65 0 2.9.67 1.24.68 1.96 1.83.71 1.15.77 2.62h-2.31q-.06-.88-.49-1.6-.42-.71-1.14-1.14-.73-.42-1.69-.42-1.48 0-2.32.76-.84.75-1.19 1.92-.34 1.17-.34 2.41v.54q0 1.24.34 2.42.34 1.17 1.18 1.92t2.33.75q.86 0 1.59-.36t1.2-.98q.47-.63.53-1.42h2.31q-.06 1.25-.85 2.32-.78 1.08-2.03 1.74t-2.75.66m16.33-2.68v-7.26q0-1.27-.75-2.02t-2.21-.75q-.9 0-1.58.32-.69.31-1.07.82-.37.51-.37 1.11h-2.44q0-1.02.69-1.98t1.95-1.58 2.97-.62q1.54 0 2.72.52 1.19.53 1.86 1.58t.67 2.62v6.58q0 .7.13 1.5.12.79.37 1.37v.21h-2.54q-.19-.42-.29-1.12-.11-.7-.11-1.3m.42-6.14v1.7h-2.4q-2.06 0-3.18.65t-1.12 1.95q0 1.02.68 1.73.69.7 2 .7 1.11 0 1.96-.47t1.34-1.16q.5-.69.54-1.33l1.04 1.16q-.09.55-.49 1.21-.41.67-1.08 1.28-.67.6-1.59 1t-2.07.4q-1.43 0-2.51-.56-1.08-.55-1.67-1.5-.59-.96-.59-2.12 0-2.28 1.72-3.46t4.63-1.18Zm7.93-3.34v11.9h-2.44v-14.12h2.37Zm4.39-2.3v2.23q-.31-.06-.58-.08t-.61-.02q-1.1 0-1.87.46-.76.45-1.18 1.26-.42.8-.52 1.83l-.69.39q0-1.71.46-3.12.45-1.42 1.42-2.27.98-.86 2.5-.86.25 0 .6.06.34.06.47.12m13.18 14.46q-1.66 0-2.91-.93-1.26-.94-1.95-2.55-.7-1.62-.7-3.68v-.28q0-2.15.7-3.77.69-1.63 1.95-2.53 1.25-.9 2.93-.9 1.78 0 2.96.82 1.19.81 1.86 2.31t.87 3.58v1.26q-.2 2.05-.86 3.54-.67 1.5-1.86 2.31-1.19.82-2.99.82m.6-2.04q1.2 0 1.97-.51.78-.5 1.25-1.34.47-.83.73-1.81v-3.17q-.16-.72-.45-1.39-.3-.67-.76-1.2t-1.13-.84q-.68-.32-1.59-.32-1.32 0-2.14.71-.83.7-1.22 1.88-.38 1.18-.38 2.59v.28q0 1.41.38 2.57.39 1.16 1.21 1.86.82.69 2.13.69m5.76 1.78h-2.23l-.21-2.74v-17.3h2.44Zm9.29.26q-1.97 0-3.43-.88-1.45-.88-2.26-2.42-.8-1.54-.8-3.52v-.57q0-2.29.88-3.92.88-1.62 2.3-2.47 1.41-.86 2.99-.86 2.04 0 3.32.91 1.29.9 1.89 2.46.61 1.56.61 3.53v1.09h-10.54v-1.96h8.1v-.18q-.05-.94-.38-1.84-.32-.89-1.04-1.47t-1.96-.58q-1.09 0-1.93.62-.85.62-1.32 1.8-.48 1.18-.48 2.87v.57q0 1.34.5 2.44.49 1.1 1.43 1.76t2.25.66q1.27 0 2.16-.52t1.55-1.4l1.48 1.15q-.68 1.05-1.95 1.89t-3.37.84m16.32-2.68v-7.26q0-1.27-.75-2.02t-2.21-.75q-.9 0-1.59.32-.68.31-1.06.82t-.38 1.11h-2.44q0-1.02.69-1.98t1.95-1.58 2.97-.62q1.54 0 2.73.52 1.18.53 1.86 1.58.67 1.05.67 2.62v6.58q0 .7.12 1.5.12.79.37 1.37v.21h-2.54q-.18-.42-.29-1.12-.1-.7-.1-1.3m.41-6.14v1.7h-2.4q-2.06 0-3.18.65t-1.12 1.95q0 1.02.68 1.73.69.7 2.01.7 1.11 0 1.95-.47.85-.47 1.35-1.16.49-.69.53-1.33l1.05 1.16q-.1.55-.5 1.21-.4.67-1.08 1.28-.67.6-1.59 1t-2.07.4q-1.43 0-2.51-.56-1.07-.55-1.67-1.5-.59-.96-.59-2.12 0-2.28 1.72-3.46t4.63-1.18Zm8.14-11.48v20.04h-2.44v-20.04Zm9.39 20.3q-1.97 0-3.43-.88-1.45-.88-2.26-2.42-.8-1.54-.8-3.52v-.57q0-2.29.88-3.92.88-1.62 2.3-2.47 1.41-.86 2.99-.86 2.04 0 3.32.91 1.29.9 1.89 2.46.61 1.56.61 3.53v1.09h-10.54v-1.96h8.1v-.18q-.05-.94-.38-1.84-.32-.89-1.04-1.47t-1.96-.58q-1.09 0-1.93.62-.85.62-1.32 1.8-.48 1.18-.48 2.87v.57q0 1.34.5 2.44.49 1.1 1.43 1.76t2.25.66q1.27 0 2.16-.52t1.55-1.4l1.48 1.15q-.68 1.05-1.95 1.89t-3.37.84m10.43-12.16v11.9h-2.44v-14.12h2.38Zm4.4-2.3v2.23q-.31-.06-.58-.08t-.61-.02q-1.11 0-1.87.46-.76.45-1.18 1.26-.42.8-.52 1.83l-.69.39q0-1.71.45-3.12.46-1.42 1.43-2.27.97-.86 2.5-.86.25 0 .59.06.35.06.48.12m14.07 14.46q-1.97 0-3.42-.88t-2.26-2.42q-.8-1.54-.8-3.52v-.57q0-2.29.88-3.92.88-1.62 2.3-2.47 1.41-.86 2.99-.86 2.04 0 3.32.91 1.29.9 1.89 2.46.61 1.56.61 3.53v1.09h-10.54v-1.96h8.1v-.18q-.05-.94-.38-1.84-.32-.89-1.04-1.47t-1.96-.58q-1.09 0-1.94.62-.84.62-1.31 1.8-.48 1.18-.48 2.87v.57q0 1.34.5 2.44.49 1.1 1.43 1.76t2.24.66q1.28 0 2.17-.52t1.55-1.4l1.48 1.15q-.68 1.05-1.95 1.89-1.28.84-3.38.84m12.29-2.43 3.83-11.95h2.5l-5.07 14.12h-1.64Zm-3.21-11.95 3.97 12.02.28 2.1h-1.63l-5.11-14.12Zm17.41 14.38q-1.97 0-3.43-.88-1.45-.88-2.25-2.42-.81-1.54-.81-3.52v-.57q0-2.29.88-3.92.88-1.62 2.3-2.47 1.42-.86 2.99-.86 2.04 0 3.32.91 1.29.9 1.9 2.46.6 1.56.6 3.53v1.09h-10.54v-1.96h8.1v-.18q-.05-.94-.38-1.84-.32-.89-1.04-1.47t-1.96-.58q-1.09 0-1.93.62t-1.32 1.8-.48 2.87v.57q0 1.34.5 2.44.49 1.1 1.43 1.76t2.25.66q1.28 0 2.16-.52.89-.52 1.56-1.4l1.47 1.15q-.68 1.05-1.95 1.89t-3.37.84m10.43-12.16v11.9h-2.44v-14.12h2.37Zm4.39-2.3v2.23q-.31-.06-.58-.08t-.61-.02q-1.1 0-1.87.46-.76.45-1.18 1.26-.42.8-.52 1.83l-.69.39q0-1.71.46-3.12.45-1.42 1.42-2.27.98-.86 2.5-.86.25 0 .6.06.34.06.47.12"/></g><path fill="transparent" stroke="transparent" d="M468.5 0h563v112h-563z"/></g></svg>